<?xml version="1.0" encoding="UTF-8" standalone="no"?>
<svg xmlns:svg="http://www.w3.org/2000/svg"
     xmlns="http://www.w3.org/2000/svg"
     version="1.1" width="360" height="220">
<style>
svg .delegate-count {
}
</style>
<circle cx="180" cy="168" r="44" fill="grey" stroke="none"/>
<text x="180" y="180" fill="white"
      style="font-size: 36px;
             font-weight: bold;
             text-align: center;
             text-anchor: middle;
             font-family: Arial-sans;">130</text>
  <circle stroke="none" fill="#f0632a" r="6.147058823529411" cy="173.85294117647058" cx="76.0345079874492"></circle><circle stroke="none" fill="#f0632a" r="6.147058823529411" cy="157.45626710935062" cx="78.3221264534572"></circle><circle stroke="none" fill="#f0632a" r="6.147058823529411" cy="141.62925298580745" cx="83.17905373750715"></circle><circle stroke="none" fill="#f0632a" r="6.147058823529411" cy="126.77183328059456" cx="90.48255963622019"></circle><circle stroke="none" fill="#f0632a" r="6.147058823529411" cy="113.25944168572836" cx="100.04809109539035"></circle><circle stroke="none" fill="#f0632a" r="6.147058823529411" cy="101.43352423726932" cx="111.633935700408"></circle><circle stroke="none" fill="#f0632a" r="6.147058823529411" cy="91.59291127973538" cx="124.94732953253808"></circle><circle stroke="none" fill="#f0632a" r="6.147058823529411" cy="83.98626629088065" cx="139.65185505099382"></circle><circle stroke="none" fill="#f0632a" r="6.147058823529411" cy="78.80580237827603" cx="155.37594206295051"></circle><circle stroke="none" fill="#f0632a" r="6.147058823529411" cy="76.18242522619617" cx="171.72225696959936"></circle><circle stroke="none" fill="#f0632a" r="6.147058823529411" cy="76.18242522619617" cx="188.27774303040061"></circle><circle stroke="none" fill="#0ac4f2" r="6.147058823529411" cy="78.80580237827603" cx="204.62405793704946"></circle><circle stroke="none" fill="#0ac4f2" r="6.147058823529411" cy="83.98626629088064" cx="220.34814494900616"></circle><circle stroke="none" fill="#0ac4f2" r="6.147058823529411" cy="91.59291127973539" cx="235.05267046746192"></circle><circle stroke="none" fill="#0ac4f2" r="6.147058823529411" cy="101.43352423726931" cx="248.36606429959198"></circle><circle stroke="none" fill="#30a34d" r="6.147058823529411" cy="113.25944168572836" cx="259.95190890460964"></circle><circle stroke="none" fill="#30a34d" r="6.147058823529411" cy="126.77183328059456" cx="269.5174403637798"></circle><circle stroke="none" fill="#2867ae" r="6.147058823529411" cy="141.62925298580745" cx="276.82094626249284"></circle><circle stroke="none" fill="#a0ad2e" r="6.147058823529411" cy="157.45626710935065" cx="281.6778735465428"></circle><circle stroke="none" fill="#c31420" r="6.147058823529411" cy="173.85294117647055" cx="283.9654920125508"></circle><circle stroke="none" fill="#f0632a" r="6.147058823529411" cy="173.85294117647058" cx="59.83359288917775"></circle><circle stroke="none" fill="#f0632a" r="6.147058823529411" cy="157.36288394801247" cx="61.82507581152146"></circle><circle stroke="none" fill="#f0632a" r="6.147058823529411" cy="141.3041995321467" cx="66.06849971910364"></circle><circle stroke="none" fill="#f0632a" r="6.147058823529411" cy="125.98290216880983" cx="72.48300193923086"></circle><circle stroke="none" fill="#f0632a" r="6.147058823529411" cy="111.69095445257477" cx="80.94634773768516"></circle><circle stroke="none" fill="#f0632a" r="6.147058823529411" cy="98.70070369436296" cx="91.29725962343646"></circle><circle stroke="none" fill="#f0632a" r="6.147058823529411" cy="87.25969207194032" cx="103.33849065200663"></circle><circle stroke="none" fill="#f0632a" r="6.147058823529411" cy="77.58593946695312" cx="116.8405831626256"></circle><circle stroke="none" fill="#f0632a" r="6.147058823529411" cy="69.86378887874594" cx="131.54624132269657"></circle><circle stroke="none" fill="#f0632a" r="6.147058823529411" cy="64.24039358474366" cx="147.175234156376"></circle><circle stroke="none" fill="#f0632a" r="6.147058823529411" cy="60.82291298805755" cx="163.4297356251718"></circle><circle stroke="none" fill="#f0632a" r="6.147058823529411" cy="59.676470588235304" cx="179.99999999999997"></circle><circle stroke="none" fill="#f0632a" r="6.147058823529411" cy="60.82291298805755" cx="196.57026437482818"></circle><circle stroke="none" fill="#0ac4f2" r="6.147058823529411" cy="64.24039358474364" cx="212.82476584362396"></circle><circle stroke="none" fill="#0ac4f2" r="6.147058823529411" cy="69.86378887874592" cx="228.4537586773034"></circle><circle stroke="none" fill="#0ac4f2" r="6.147058823529411" cy="77.58593946695308" cx="243.15941683737432"></circle><circle stroke="none" fill="#30a34d" r="6.147058823529411" cy="87.2596920719403" cx="256.66150934799333"></circle><circle stroke="none" fill="#30a34d" r="6.147058823529411" cy="98.70070369436293" cx="268.7027403765635"></circle><circle stroke="none" fill="#30a34d" r="6.147058823529411" cy="111.69095445257472" cx="279.0536522623148"></circle><circle stroke="none" fill="#2867ae" r="6.147058823529411" cy="125.98290216880979" cx="287.5169980607691"></circle><circle stroke="none" fill="#2867ae" r="6.147058823529411" cy="141.3041995321466" cx="293.93150028089633"></circle><circle stroke="none" fill="#a0ad2e" r="6.147058823529411" cy="157.3628839480124" cx="298.17492418847854"></circle><circle stroke="none" fill="#c31420" r="6.147058823529411" cy="173.8529411764705" cx="300.16640711082226"></circle><circle stroke="none" fill="#f0632a" r="6.147058823529411" cy="173.85294117647058" cx="43.638481719291235"></circle><circle stroke="none" fill="#f0632a" r="6.147058823529411" cy="157.2957124585077" cx="45.40146610295773"></circle><circle stroke="none" fill="#f0632a" r="6.147058823529411" cy="141.07632604541774" cx="49.16729152892472"></circle><circle stroke="none" fill="#f0632a" r="6.147058823529411" cy="125.43612819743504" cx="54.87992209915606"></circle><circle stroke="none" fill="#f0632a" r="6.147058823529411" cy="110.60784678501014" cx="62.45435324016729"></circle><circle stroke="none" fill="#f0632a" r="6.147058823529411" cy="96.81212827240773" cx="71.77787658046228"></circle><circle stroke="none" fill="#f0632a" r="6.147058823529411" cy="84.2542544739617" cx="82.71175706354279"></circle><circle stroke="none" fill="#f0632a" r="6.147058823529411" cy="73.12108793801747" cx="95.09329734086357"></circle><circle stroke="none" fill="#f0632a" r="6.147058823529411" cy="63.5782914115854" cx="108.73825872633851"></circle><circle stroke="none" fill="#f0632a" r="6.147058823529411" cy="55.767862760378364" cx="123.44360268832696"></circle><circle stroke="none" fill="#f0632a" r="6.147058823529411" cy="49.80602202489521" cx="138.99051208539748"></circle><circle stroke="none" fill="#f0632a" r="6.147058823529411" cy="45.78148205338891" cx="155.14764718954683"></circle><circle stroke="none" fill="#f0632a" r="6.147058823529411" cy="43.75412844489193" cx="171.67458804688943"></circle><circle stroke="none" fill="#f0632a" r="6.147058823529411" cy="43.75412844489193" cx="188.3254119531106"></circle><circle stroke="none" fill="#f0632a" r="6.147058823529411" cy="45.78148205338891" cx="204.85235281045317"></circle><circle stroke="none" fill="#0ac4f2" r="6.147058823529411" cy="49.80602202489521" cx="221.00948791460252"></circle><circle stroke="none" fill="#0ac4f2" r="6.147058823529411" cy="55.767862760378364" cx="236.55639731167304"></circle><circle stroke="none" fill="#0ac4f2" r="6.147058823529411" cy="63.5782914115854" cx="251.26174127366147"></circle><circle stroke="none" fill="#30a34d" r="6.147058823529411" cy="73.12108793801745" cx="264.9067026591364"></circle><circle stroke="none" fill="#30a34d" r="6.147058823529411" cy="84.25425447396172" cx="277.2882429364572"></circle><circle stroke="none" fill="#30a34d" r="6.147058823529411" cy="96.81212827240773" cx="288.22212341953775"></circle><circle stroke="none" fill="#30a34d" r="6.147058823529411" cy="110.60784678501017" cx="297.5456467598327"></circle><circle stroke="none" fill="#2867ae" r="6.147058823529411" cy="125.43612819743504" cx="305.12007790084397"></circle><circle stroke="none" fill="#2867ae" r="6.147058823529411" cy="141.07632604541774" cx="310.8327084710753"></circle><circle stroke="none" fill="#a0ad2e" r="6.147058823529411" cy="157.29571245850775" cx="314.5985338970423"></circle><circle stroke="none" fill="#c31420" r="6.147058823529411" cy="173.85294117647058" cx="316.36151828070876"></circle><circle stroke="none" fill="#f0632a" r="6.147058823529411" cy="173.85294117647055" cx="27.44732601786245"></circle><circle stroke="none" fill="#f0632a" r="6.147058823529411" cy="157.2453067696096" cx="29.028715951439608"></circle><circle stroke="none" fill="#f0632a" r="6.147058823529411" cy="140.90935526345845" cx="32.41264903332069"></circle><circle stroke="none" fill="#f0632a" r="6.147058823529411" cy="125.04013207770745" cx="37.558722312510696"></circle><circle stroke="none" fill="#f0632a" r="6.147058823529411" cy="109.82711006279068" cx="44.40549351415231"></circle><circle stroke="none" fill="#f0632a" r="6.147058823529411" cy="95.45192726180228" cx="52.871214638317625"></circle><circle stroke="none" fill="#f0632a" r="6.147058823529411" cy="82.0862182172106" cx="62.85480800189629"></circle><circle stroke="none" fill="#f0632a" r="6.147058823529411" cy="69.88956471579311" cx="74.23707306998936"></circle><circle stroke="none" fill="#f0632a" r="6.147058823529411" cy="59.00759043916429" cx="86.88210966767303"></circle><circle stroke="none" fill="#f0632a" r="6.147058823529411" cy="49.57022226908825" cx="100.63894057949305"></circle><circle stroke="none" fill="#f0632a" r="6.147058823529411" cy="41.69013900696885" cx="115.34331416343184"></circle><circle stroke="none" fill="#f0632a" r="6.147058823529411" cy="35.461426029251726" cx="130.81966545678227"></circle><circle stroke="none" fill="#f0632a" r="6.147058823529411" cy="30.958451941672138" cx="146.8832123590252"></circle><circle stroke="none" fill="#f0632a" r="6.147058823529411" cy="28.234980644694303" cx="163.34216186403643"></circle><circle stroke="none" fill="#f0632a" r="6.147058823529411" cy="27.323529411764696" cx="180"></circle><circle stroke="none" fill="#f0632a" r="6.147058823529411" cy="28.234980644694303" cx="196.65783813596357"></circle><circle stroke="none" fill="#0ac4f2" r="6.147058823529411" cy="30.958451941672138" cx="213.1167876409748"></circle><circle stroke="none" fill="#0ac4f2" r="6.147058823529411" cy="35.461426029251726" cx="229.1803345432177"></circle><circle stroke="none" fill="#0ac4f2" r="6.147058823529411" cy="41.69013900696882" cx="244.65668583656813"></circle><circle stroke="none" fill="#0ac4f2" r="6.147058823529411" cy="49.57022226908822" cx="259.3610594205069"></circle><circle stroke="none" fill="#30a34d" r="6.147058823529411" cy="59.007590439164275" cx="273.11789033232697"></circle><circle stroke="none" fill="#30a34d" r="6.147058823529411" cy="69.88956471579309" cx="285.7629269300106"></circle><circle stroke="none" fill="#30a34d" r="6.147058823529411" cy="82.08621821721057" cx="297.14519199810366"></circle><circle stroke="none" fill="#30a34d" r="6.147058823529411" cy="95.45192726180223" cx="307.12878536168233"></circle><circle stroke="none" fill="#30a34d" r="6.147058823529411" cy="109.82711006279068" cx="315.59450648584766"></circle><circle stroke="none" fill="#2867ae" r="6.147058823529411" cy="125.04013207770745" cx="322.44127768748933"></circle><circle stroke="none" fill="#2867ae" r="6.147058823529411" cy="140.90935526345845" cx="327.5873509666793"></circle><circle stroke="none" fill="#a0ad2e" r="6.147058823529411" cy="157.2453067696096" cx="330.9712840485604"></circle><circle stroke="none" fill="#c31420" r="6.147058823529411" cy="173.85294117647055" cx="332.55267398213755"></circle><circle stroke="none" fill="#f0632a" r="6.147058823529411" cy="173.8529411764706" cx="11.258987167420656"></circle><circle stroke="none" fill="#f0632a" r="6.147058823529411" cy="157.2062126014236" cx="12.692621202849722"></circle><circle stroke="none" fill="#f0632a" r="6.147058823529411" cy="140.78266966006632" cx="15.764447378306215"></circle><circle stroke="none" fill="#f0632a" r="6.147058823529411" cy="124.74312366359952" cx="20.444387872164214"></circle><circle stroke="none" fill="#f0632a" r="6.147058823529411" cy="109.24462601268425" cx="26.686618992797264"></circle><circle stroke="none" fill="#f0632a" r="6.147058823529411" cy="94.43893042683062" cx="34.430019861786405"></circle><circle stroke="none" fill="#f0632a" r="6.147058823529411" cy="80.4710070460933" cx="43.59877087971009"></circle><circle stroke="none" fill="#f0632a" r="6.147058823529411" cy="67.47762295426335" cx="54.1030961146315"></circle><circle stroke="none" fill="#f0632a" r="6.147058823529411" cy="55.586003022381334" cx="65.84014234417718"></circle><circle stroke="none" fill="#f0632a" r="6.147058823529411" cy="44.91258418493666" cx="78.69498614405695"></circle><circle stroke="none" fill="#f0632a" r="6.147058823529411" cy="35.561875346273155" cx="92.5417591621058"></circle><circle stroke="none" fill="#f0632a" r="6.147058823529411" cy="27.62543408043993" cx="107.24488055971405"></circle><circle stroke="none" fill="#f0632a" r="6.147058823529411" cy="21.180970144143146" cx="122.66038455318102"></circle><circle stroke="none" fill="#f0632a" r="6.147058823529411" cy="16.29158458076199" cx="138.63733005635606"></circle><circle stroke="none" fill="#f0632a" r="6.147058823529411" cy="13.005151865750406" cx="155.01927862203436"></circle><circle stroke="none" fill="#f0632a" r="6.147058823529411" cy="11.353851143155595" cx="171.64582621082693"></circle><circle stroke="none" fill="#f0632a" r="6.147058823529411" cy="11.353851143155595" cx="188.35417378917307"></circle><circle stroke="none" fill="#f0632a" r="6.147058823529411" cy="13.005151865750406" cx="204.98072137796564"></circle><circle stroke="none" fill="#0ac4f2" r="6.147058823529411" cy="16.291584580761963" cx="221.36266994364388"></circle><circle stroke="none" fill="#0ac4f2" r="6.147058823529411" cy="21.180970144143146" cx="237.33961544681898"></circle><circle stroke="none" fill="#0ac4f2" r="6.147058823529411" cy="27.62543408043993" cx="252.75511944028597"></circle><circle stroke="none" fill="#0ac4f2" r="6.147058823529411" cy="35.561875346273155" cx="267.4582408378942"></circle><circle stroke="none" fill="#30a34d" r="6.147058823529411" cy="44.91258418493666" cx="281.30501385594306"></circle><circle stroke="none" fill="#30a34d" r="6.147058823529411" cy="55.586003022381334" cx="294.1598576558228"></circle><circle stroke="none" fill="#30a34d" r="6.147058823529411" cy="67.47762295426335" cx="305.8969038853685"></circle><circle stroke="none" fill="#30a34d" r="6.147058823529411" cy="80.47100704609329" cx="316.4012291202899"></circle><circle stroke="none" fill="#30a34d" r="6.147058823529411" cy="94.43893042683062" cx="325.5699801382136"></circle><circle stroke="none" fill="#30a34d" r="6.147058823529411" cy="109.24462601268428" cx="333.3133810072028"></circle><circle stroke="none" fill="#2867ae" r="6.147058823529411" cy="124.74312366359956" cx="339.5556121278358"></circle><circle stroke="none" fill="#2867ae" r="6.147058823529411" cy="140.78266966006635" cx="344.23555262169384"></circle><circle stroke="none" fill="#a0ad2e" r="6.147058823529411" cy="157.20621260142363" cx="347.30737879715025"></circle><circle stroke="none" fill="#c31420" r="6.147058823529411" cy="173.8529411764706" cx="348.7410128325794"></circle></svg>
